<svg version="1.0" xmlns="http://www.w3.org/2000/svg"
 width="286.000000pt" height="286.000000pt" viewBox="0 0 286.000000 286.000000"
 preserveAspectRatio="xMidYMid meet" fill="inherit">
<g transform="translate(0.000000,286.000000) scale(0.100000,-0.100000)" stroke="none" fill="inherit">
<path d="M76 2734 c-14 -14 -16 -123 -16 -1048 0 -988 1 -1034 18 -1049 17
-16 95 -17 920 -17 l901 0 36 -117 c20 -65 50 -163 67 -218 17 -55 35 -106 40
-112 23 -29 54 -12 145 79 l93 93 118 -118 c71 -71 125 -117 137 -117 13 0 68
48 144 124 105 105 123 128 118 148 -3 13 -58 73 -120 134 l-115 111 96 96
c83 83 94 98 88 121 -5 22 -18 29 -96 53 l-90 27 0 896 c0 856 -1 898 -18 913
-17 16 -117 17 -1235 17 -1092 0 -1217 -2 -1231 -16z m2452 -22 c-4 -253 5
-1781 10 -1790 10 -14 91 -46 145 -56 20 -4 39 -11 42 -17 8 -12 -32 -63 -62
-80 -12 -6 -21 -16 -20 -21 1 -6 -7 -15 -18 -21 -11 -7 -24 -18 -28 -25 -5 -7
-13 -9 -19 -6 -6 4 -8 3 -5 -3 4 -6 -2 -22 -14 -37 -16 -20 -18 -30 -9 -46 6
-11 15 -20 20 -20 6 0 10 -7 10 -17 0 -9 3 -13 7 -10 3 4 11 -3 17 -14 6 -12
14 -21 19 -20 7 1 52 -40 52 -49 0 -8 44 -50 52 -49 4 0 10 -7 13 -16 3 -9 10
-15 15 -13 5 2 11 -9 12 -24 1 -21 -7 -34 -40 -58 -22 -16 -37 -30 -33 -30 8
0 -19 -29 -31 -33 -14 -4 -49 -42 -46 -49 5 -10 -33 -29 -41 -20 -4 3 -4 -1
-1 -10 5 -12 -2 -21 -24 -32 -33 -17 -55 -21 -31 -6 13 8 13 10 -1 10 -17 0
-69 56 -69 74 0 5 -3 7 -6 3 -8 -7 -70 55 -66 67 2 5 -4 6 -13 2 -9 -3 -13 -2
-10 4 3 6 -1 13 -9 16 -9 3 -13 11 -9 17 3 6 1 7 -6 3 -7 -4 -19 2 -30 16 -19
22 -19 23 -40 4 -12 -11 -21 -15 -21 -10 0 5 -6 -2 -13 -16 -7 -14 -19 -25
-27 -25 -8 -1 -14 -6 -12 -13 1 -7 -9 -18 -23 -24 -14 -6 -25 -18 -25 -25 0
-8 -4 -11 -10 -8 -5 3 -10 -1 -10 -9 0 -9 -7 -16 -16 -16 -8 0 -13 -4 -9 -9 5
-9 -33 -28 -39 -19 -4 6 -85 271 -107 353 -12 44 -28 86 -34 93 -10 11 -180
14 -901 17 -489 2 -897 4 -906 4 -11 1 -15 6 -12 16 4 8 1 15 -5 15 -8 0 -11
271 -11 1010 1 614 4 1010 10 1010 5 0 7 7 4 15 -5 13 137 15 1214 15 1154 0
1221 -1 1220 -18z"/>
<path d="M590 2691 c-19 -4 -123 -6 -230 -4 -166 1 -198 -1 -212 -14 -16 -14
-18 -35 -18 -158 0 -96 4 -145 12 -153 17 -17 2319 -17 2336 0 14 14 17 285 3
306 -7 11 -177 23 -326 24 -5 0 -345 -1 -755 -2 -411 0 -753 1 -760 3 -8 3
-31 2 -50 -2z m1880 -176 l0 -145 -1160 0 -1160 0 0 145 0 145 1160 0 1160 0
0 -145z"/>
<path d="M296 2544 c-9 -8 -16 -22 -16 -29 0 -7 7 -21 16 -29 30 -30 74 -13
74 29 0 42 -44 59 -74 29z m53 -46 c1 -5 -3 -8 -9 -8 -5 0 -10 12 -9 28 0 24
1 25 9 7 5 -11 9 -23 9 -27z m-32 0 c-3 -8 -6 -5 -6 6 -1 11 2 17 5 13 3 -3 4
-12 1 -19z"/>
<path d="M480 2539 c-9 -16 -8 -26 5 -45 17 -27 27 -29 56 -14 19 11 24 35 13
64 -9 24 -61 21 -74 -5z m43 -6 c-19 -7 -16 -23 5 -23 14 0 15 -2 2 -9 -18
-12 -30 -5 -30 20 0 12 7 19 18 18 10 0 12 -3 5 -6z"/>
<path d="M677 2554 c-13 -13 -7 -61 8 -74 12 -10 21 -10 41 -1 21 9 25 17 22
44 -3 28 -7 32 -33 35 -17 2 -34 0 -38 -4z m20 -46 c-3 -7 -5 -2 -5 12 0 14 2
19 5 13 2 -7 2 -19 0 -25z"/>
<path d="M102 2600 c0 -14 2 -19 5 -12 2 6 2 18 0 25 -3 6 -5 1 -5 -13z"/>
<path d="M188 2323 c6 -2 18 -2 25 0 6 3 1 5 -13 5 -14 0 -19 -2 -12 -5z"/>
<path d="M793 2323 c70 -2 184 -2 255 0 70 1 12 3 -128 3 -140 0 -198 -2 -127
-3z"/>
<path d="M1527 2323 c79 -2 207 -2 285 0 79 1 15 3 -142 3 -157 0 -221 -2
-143 -3z"/>
<path d="M2088 2323 c7 -3 16 -2 19 1 4 3 -2 6 -13 5 -11 0 -14 -3 -6 -6z"/>
<path d="M2178 2323 c7 -3 16 -2 19 1 4 3 -2 6 -13 5 -11 0 -14 -3 -6 -6z"/>
<path d="M2248 2323 c7 -3 16 -2 19 1 4 3 -2 6 -13 5 -11 0 -14 -3 -6 -6z"/>
<path d="M142 2288 c-17 -17 -17 -1569 0 -1586 15 -15 1714 -17 1737 -3 16 10
15 13 -39 191 -17 58 -37 110 -43 117 -8 8 -67 13 -176 15 l-165 3 -9 35 c-10
37 -4 193 8 222 7 17 35 18 385 18 372 0 379 0 385 -20 4 -11 5 -77 4 -145 -2
-68 -1 -127 2 -130 3 -3 41 -16 84 -29 46 -13 73 -26 65 -29 -8 -3 -2 -3 14 0
16 3 27 2 23 -3 -6 -11 43 -12 61 -1 9 6 12 151 12 667 0 362 -3 665 -6 674
-6 14 -118 16 -1168 16 -890 0 -1165 -3 -1174 -12z m2328 -672 l0 -665 -27 8
c-16 5 -66 20 -113 35 l-85 26 3 136 c2 93 -1 140 -9 150 -9 12 -77 14 -405
14 -379 0 -394 -1 -404 -19 -5 -11 -10 -76 -10 -145 0 -100 3 -128 16 -140 13
-13 44 -16 185 -16 128 0 169 -3 169 -12 0 -7 18 -69 40 -138 22 -68 40 -128
40 -132 0 -4 -387 -8 -860 -8 l-860 0 0 785 0 785 1160 0 1160 0 0 -664z"/>
<path d="M753 2109 c-77 -38 -125 -115 -126 -201 l-1 -47 -90 -3 -91 -3 -3
-414 c-1 -297 1 -418 9 -427 17 -21 781 -21 798 0 8 9 10 130 9 427 l-3 414
-90 3 -90 3 -1 52 c-2 89 -58 169 -141 204 -49 20 -131 16 -180 -8z m154 -5
c16 -3 40 -14 53 -25 21 -16 22 -18 5 -13 -18 5 -18 4 -2 -6 9 -6 21 -9 26 -6
15 9 61 -89 61 -131 0 -21 7 -49 16 -61 13 -19 24 -22 83 -22 46 0 72 -5 80
-14 8 -10 11 -122 11 -395 -1 -210 -3 -388 -6 -396 -5 -12 -66 -14 -375 -15
-330 0 -370 1 -376 16 -5 13 -7 13 -14 2 -5 -7 -9 169 -9 395 l0 407 68 1
c109 2 116 6 123 69 6 64 31 128 53 136 9 3 14 9 11 13 -2 4 15 17 38 29 42
22 98 27 154 16z"/>
<path d="M817 2060 c-16 -5 -34 -7 -41 -4 -25 10 -86 -108 -86 -165 0 -47 14
-51 162 -51 126 0 138 2 148 19 5 11 10 31 10 45 0 32 -36 116 -50 116 -6 0
-8 5 -5 10 3 6 -1 10 -9 10 -9 0 -16 5 -16 11 0 5 -4 7 -10 4 -5 -3 -16 -3
-22 2 -19 11 -49 12 -81 3z m90 -29 c48 -22 83 -79 83 -136 l0 -35 -140 0
-140 0 0 33 c1 59 34 115 82 137 53 24 63 24 115 1z"/>
<path d="M1031 1894 c0 -11 3 -14 6 -6 3 7 2 16 -1 19 -3 4 -6 -2 -5 -13z"/>
<path d="M470 1819 c0 -5 5 -7 10 -4 6 3 10 8 10 11 0 2 -4 4 -10 4 -5 0 -10
-5 -10 -11z"/>
<path d="M525 1790 c-4 -6 -10 -8 -14 -6 -11 7 -11 -675 0 -696 9 -17 33 -18
343 -18 276 0 335 2 339 14 3 8 6 166 7 351 0 242 -3 341 -11 351 -16 19 -103
19 -119 -1 -7 -9 -14 -32 -15 -53 -5 -79 -4 -78 -15 -62 -9 13 -11 13 -20 0
-7 -11 -10 3 -10 47 0 51 -3 64 -19 73 -28 15 -274 13 -289 -2 -7 -7 -12 -38
-12 -70 0 -32 -4 -58 -10 -58 -5 0 -10 5 -10 11 0 5 -4 7 -10 4 -6 -4 -10 10
-10 34 0 22 -4 51 -10 65 -8 23 -15 26 -59 26 -27 0 -53 -5 -56 -10z m98 -49
c-10 -77 22 -125 67 -101 17 9 20 21 20 75 l0 65 140 0 140 0 0 -65 c0 -54 3
-66 20 -75 45 -24 77 24 67 101 l-5 39 54 0 54 0 0 -345 0 -345 -327 0 -328 0
0 345 0 345 52 0 51 0 -5 -39z"/>
<path d="M470 1769 c0 -11 4 -18 10 -14 5 3 7 12 3 20 -7 21 -13 19 -13 -6z"/>
<path d="M1020 1759 c0 -5 5 -7 10 -4 6 3 10 8 10 11 0 2 -4 4 -10 4 -5 0 -10
-5 -10 -11z"/>
<path d="M474 1290 c0 -85 2 -120 3 -77 2 42 2 112 0 155 -1 42 -3 7 -3 -78z"/>
<path d="M1212 1370 c0 -14 2 -19 5 -12 2 6 2 18 0 25 -3 6 -5 1 -5 -13z"/>
<path d="M1212 1320 c0 -14 2 -19 5 -12 2 6 2 18 0 25 -3 6 -5 1 -5 -13z"/>
<path d="M1213 1160 c0 -25 2 -35 4 -22 2 12 2 32 0 45 -2 12 -4 2 -4 -23z"/>
<path d="M1120 1050 c-12 -8 -10 -10 8 -10 13 0 20 4 17 10 -7 12 -6 12 -25 0z"/>
<path d="M623 1043 c9 -2 23 -2 30 0 6 3 -1 5 -18 5 -16 0 -22 -2 -12 -5z"/>
<path d="M718 1043 c7 -3 16 -2 19 1 4 3 -2 6 -13 5 -11 0 -14 -3 -6 -6z"/>
<path d="M1432 1848 c-15 -15 -15 -41 0 -56 9 -9 112 -12 404 -12 422 0 420 0
412 52 l-3 23 -400 3 c-303 2 -404 -1 -413 -10z m781 -28 c-5 -20 -12 -20
-381 -18 -348 3 -375 4 -378 21 -2 16 22 17 381 17 379 0 383 0 378 -20z"/>
<path d="M1533 1823 c9 -2 23 -2 30 0 6 3 -1 5 -18 5 -16 0 -22 -2 -12 -5z"/>
<path d="M1793 1823 c20 -2 54 -2 75 0 20 2 3 4 -38 4 -41 0 -58 -2 -37 -4z"/>
<path d="M1432 1688 c-7 -7 -12 -19 -12 -28 0 -39 12 -40 411 -40 213 0 394 3
403 6 19 7 21 45 4 62 -17 17 -789 17 -806 0z m779 -22 c-9 -11 -9 -15 1 -19
7 -3 -156 -6 -362 -6 -371 -1 -400 1 -400 31 0 4 174 8 386 8 331 0 385 -2
375 -14z"/>
<path d="M1485 1660 c3 -5 8 -10 11 -10 2 0 4 5 4 10 0 6 -5 10 -11 10 -5 0
-7 -4 -4 -10z"/>
<path d="M1550 1660 c-10 -6 46 -9 165 -9 104 1 167 5 150 9 -44 11 -298 11
-315 0z"/>
<path d="M1963 1653 c9 -2 23 -2 30 0 6 3 -1 5 -18 5 -16 0 -22 -2 -12 -5z"/>
<path d="M1432 1528 c-19 -19 -14 -45 10 -62 19 -14 63 -16 279 -16 142 0 265
3 273 6 26 10 38 41 26 64 -10 19 -21 20 -293 20 -207 0 -286 -3 -295 -12z
m568 -18 c0 -5 -7 -10 -16 -10 -12 0 -14 -3 -6 -12 8 -10 -43 -13 -250 -11
-143 1 -262 4 -266 7 -3 4 -7 13 -8 21 -2 13 36 15 272 15 176 0 274 -4 274
-10z"/>
<path d="M1508 1493 c7 -3 16 -2 19 1 4 3 -2 6 -13 5 -11 0 -14 -3 -6 -6z"/>
<path d="M1548 1493 c7 -3 16 -2 19 1 4 3 -2 6 -13 5 -11 0 -14 -3 -6 -6z"/>
<path d="M102 2150 c0 -14 2 -19 5 -12 2 6 2 18 0 25 -3 6 -5 1 -5 -13z"/>
<path d="M100 2081 c0 -11 -1 -308 -2 -660 -2 -353 0 -641 5 -641 4 0 7 297 7
660 0 363 -2 660 -5 660 -3 0 -5 -9 -5 -19z"/>
<path d="M1550 1286 c0 -2 7 -7 16 -10 8 -3 12 -2 9 4 -6 10 -25 14 -25 6z"/>
<path d="M1713 1283 c9 -2 25 -2 35 0 9 3 1 5 -18 5 -19 0 -27 -2 -17 -5z"/>
<path d="M2120 1279 c0 -5 5 -7 10 -4 6 3 10 8 10 11 0 2 -4 4 -10 4 -5 0 -10
-5 -10 -11z"/>
<path d="M1525 1250 l-30 -5 0 -85 0 -85 130 -3 130 -3 25 30 c20 24 31 29 52
24 15 -3 25 -9 22 -14 -3 -5 1 -6 9 -3 8 3 43 -4 77 -15 45 -15 89 -21 154
-21 l92 0 1 79 c1 58 -3 83 -13 92 -14 12 -587 20 -649 9z m640 -90 l0 -70
-74 0 c-52 0 -104 9 -178 30 -57 17 -112 30 -123 30 -21 0 -45 -34 -35 -50 4
-6 -40 -10 -119 -10 l-126 0 0 73 0 72 327 -3 328 -3 0 -69z"/>
<path d="M1863 1049 c16 -9 270 -88 617 -191 74 -22 137 -42 139 -44 2 -2 -33
-39 -78 -83 -55 -54 -81 -87 -81 -102 0 -17 35 -58 116 -140 l115 -115 -80
-80 -80 -80 -118 118 c-72 72 -125 118 -138 118 -12 0 -52 -34 -101 -84 l-81
-84 -12 41 c-26 92 -215 712 -218 716 -22 30 25 -192 57 -264 13 -30 64 -194
105 -340 42 -146 50 -165 70 -165 7 0 21 8 31 18 10 9 18 15 19 12 1 -3 9 3
19 13 10 9 15 17 13 17 -3 0 17 23 43 50 44 47 80 64 80 39 0 -5 -6 -7 -12 -3
-8 4 -10 3 -5 -2 5 -5 13 -10 18 -10 5 -1 14 -2 20 -3 5 0 7 -7 3 -13 -4 -7
-4 -10 0 -6 7 6 46 -25 46 -37 1 -10 46 -52 68 -64 12 -7 20 -17 16 -23 -4 -7
-3 -8 4 -4 7 4 12 3 12 -3 0 -18 43 -51 66 -51 13 0 27 7 32 16 5 9 13 17 18
17 5 1 8 5 7 9 -2 5 1 7 6 5 5 -1 17 7 27 19 11 11 28 26 39 33 18 11 18 12 1
7 -14 -5 -10 3 13 26 39 40 39 51 1 85 -17 14 -28 28 -25 31 2 3 -16 20 -40
39 -25 19 -45 40 -45 47 0 7 -10 21 -22 32 l-23 19 19 -25 c11 -14 4 -9 -15
10 -21 21 -30 38 -24 42 6 5 3 8 -7 8 -10 0 -18 5 -18 11 0 5 4 7 10 4 6 -3 7
1 4 9 -3 9 -2 16 2 16 15 0 64 47 57 54 -4 4 3 9 15 13 12 3 19 9 17 14 -3 4
7 15 22 23 30 15 40 48 20 64 -7 6 -61 25 -122 42 -60 18 -116 38 -124 44 -8
6 -16 10 -18 9 -1 -2 -11 -3 -20 -3 -15 0 -16 2 -3 10 11 7 7 8 -15 6 -17 -2
-38 1 -48 6 -10 5 -26 11 -35 13 -9 3 -37 9 -62 15 -25 6 -61 17 -80 24 -45
18 -221 66 -240 66 -11 -1 -11 -3 3 -11z"/>
<path d="M2600 859 c0 -5 5 -7 10 -4 6 3 10 8 10 11 0 2 -4 4 -10 4 -5 0 -10
-5 -10 -11z"/>
<path d="M1871 844 c0 -11 3 -14 6 -6 3 7 2 16 -1 19 -3 4 -6 -2 -5 -13z"/>
<path d="M175 670 c4 -6 11 -8 16 -5 14 9 11 15 -7 15 -8 0 -12 -5 -9 -10z"/>
<path d="M230 670 c0 -5 7 -7 15 -4 8 4 15 8 15 10 0 2 -7 4 -15 4 -8 0 -15
-4 -15 -10z"/>
<path d="M434 669 c-4 -8 24 -9 97 -5 56 4 105 8 107 11 3 3 -40 5 -96 5 -62
0 -103 -4 -108 -11z"/>
<path d="M663 673 c9 -2 25 -2 35 0 9 3 1 5 -18 5 -19 0 -27 -2 -17 -5z"/>
<path d="M743 673 c9 -2 23 -2 30 0 6 3 -1 5 -18 5 -16 0 -22 -2 -12 -5z"/>
<path d="M825 670 c-3 -5 1 -10 9 -10 8 0 18 5 21 10 3 6 -1 10 -9 10 -8 0
-18 -4 -21 -10z"/>
<path d="M908 673 c6 -2 18 -2 25 0 6 3 1 5 -13 5 -14 0 -19 -2 -12 -5z"/>
<path d="M983 673 c9 -2 25 -2 35 0 9 3 1 5 -18 5 -19 0 -27 -2 -17 -5z"/>
<path d="M1063 673 c9 -2 25 -2 35 0 9 3 1 5 -18 5 -19 0 -27 -2 -17 -5z"/>
<path d="M1148 673 c6 -2 18 -2 25 0 6 3 1 5 -13 5 -14 0 -19 -2 -12 -5z"/>
<path d="M1228 673 c6 -2 18 -2 25 0 6 3 1 5 -13 5 -14 0 -19 -2 -12 -5z"/>
<path d="M1296 669 c3 -5 67 -9 142 -8 96 1 126 4 102 9 -47 11 -251 10 -244
-1z"/>
<path d="M1648 673 c18 -2 45 -2 60 0 15 2 0 4 -33 4 -33 0 -45 -2 -27 -4z"/>
<path d="M1975 510 c3 -5 8 -10 11 -10 2 0 4 5 4 10 0 6 -5 10 -11 10 -5 0 -7
-4 -4 -10z"/>
<path d="M1996 437 c3 -10 9 -15 12 -12 3 3 0 11 -7 18 -10 9 -11 8 -5 -6z"/>
<path d="M2017 359 c4 -13 8 -18 11 -10 2 7 -1 18 -6 23 -8 8 -9 4 -5 -13z"/>
</g>
</svg>
